# xmcd CD database file
#
# Track frame offsets:
#	182
#	17352
#	36952
#
# Disc length: 711 seconds
#
# Revision: 2
# Processed by: cddbd v1.4PL0 Copyright (c) Steve Scherf et al.
# Submitted via: CDex 1.40Beta9
#
DISCID=1702c503
DTITLE=Claudia jung - Ein Lied das von Liebe erzählt
DYEAR=1900
DGENRE=
TTITLE0=Ein Lied, das von Liebe erzählt
TTITLE1=Jenny hat's einfach mal ausprobiert
TTITLE2=Domani L'Amore Vincera
EXTD=
EXTT0=
EXTT1=
EXTT2=Live Acoustic Version/Previously Unreleased
PLAYORDER=
